<?xml version="1.0" encoding="utf-8"?>
<!-- Generator: Adobe Illustrator 27.4.0, SVG Export Plug-In . SVG Version: 6.00 Build 0)  -->
<svg version="1.1" id="oceanside_1_" xmlns="http://www.w3.org/2000/svg" xmlns:xlink="http://www.w3.org/1999/xlink" x="0px"
	 y="0px" viewBox="0 0 130 15" style="enable-background:new 0 0 130 15;" xml:space="preserve">
<style type="text/css">
	.st0{fill:#333333;}
</style>
<g>
	<path class="st0" d="M20,0.7l-4.2,13.6h-2.6L10.2,4L7,14.3l-2.6,0l-4-13.6h2.5l2.9,11.1L8.9,0.7h2.6l3,11l3-11H20z"/>
	<path class="st0" d="M30.4,11.5h-5.9l-1,2.8h-2.4l5.1-13.6h2.7l5.1,13.6h-2.4L30.4,11.5z M29.8,9.7l-2.3-6.3l-2.3,6.3H29.8z"/>
	<path class="st0" d="M48.3,0.7L43,14.3h-2.7L35,0.7h2.5L41.7,12l4.2-11.3H48.3z"/>
	<path class="st0" d="M52.6,2.5v4h4.9v1.8h-4.9v4.2h5.5v1.8h-7.8V0.7h7.8v1.8H52.6z"/>
	<path class="st0" d="M71.2,4.6c-0.4-0.7-0.9-1.2-1.5-1.5s-1.4-0.5-2.3-0.5c-0.9,0-1.8,0.2-2.5,0.6c-0.7,0.4-1.3,1-1.7,1.7
		c-0.4,0.7-0.6,1.6-0.6,2.6c0,1,0.2,1.8,0.6,2.6c0.4,0.8,1,1.3,1.7,1.7c0.7,0.4,1.6,0.6,2.5,0.6c1.3,0,2.3-0.3,3.1-1
		c0.8-0.7,1.3-1.6,1.4-2.8h-5.3V6.9h7.8v1.7c-0.2,1.1-0.5,2-1.2,2.9s-1.5,1.6-2.5,2.1c-1,0.5-2.1,0.8-3.4,0.8
		c-1.3,0-2.6-0.3-3.7-0.9s-2-1.4-2.6-2.5c-0.6-1.1-1-2.3-1-3.6s0.3-2.5,1-3.6c0.6-1.1,1.5-1.9,2.6-2.5c1.1-0.6,2.3-0.9,3.6-0.9
		c1.5,0,2.9,0.4,4,1.1c1.2,0.7,2,1.7,2.6,3H71.2z"/>
	<path class="st0" d="M84.1,14.3l-3.3-5.4h-1.8v5.4h-2.3V0.7h4.9c1.1,0,2,0.2,2.8,0.5s1.3,0.9,1.7,1.5c0.4,0.6,0.6,1.3,0.6,2.1
		c0,0.9-0.3,1.7-0.8,2.4c-0.5,0.7-1.4,1.2-2.5,1.5l3.5,5.6H84.1z M79.1,7.1h2.6c0.9,0,1.5-0.2,2-0.6c0.4-0.4,0.7-1,0.7-1.7
		c0-0.7-0.2-1.3-0.7-1.7c-0.4-0.4-1.1-0.6-2-0.6h-2.6V7.1z"/>
	<path class="st0" d="M92.5,13.6c-1.1-0.6-2-1.4-2.6-2.5s-1-2.3-1-3.6s0.3-2.5,1-3.6c0.6-1.1,1.5-1.9,2.6-2.5
		c1.1-0.6,2.3-0.9,3.6-0.9c1.3,0,2.6,0.3,3.7,0.9c1.1,0.6,2,1.4,2.6,2.5c0.6,1.1,1,2.3,1,3.6s-0.3,2.5-1,3.6s-1.5,1.9-2.6,2.5
		c-1.1,0.6-2.3,0.9-3.7,0.9C94.8,14.5,93.6,14.2,92.5,13.6z M98.6,11.9c0.7-0.4,1.3-1,1.7-1.8c0.4-0.8,0.6-1.6,0.6-2.7
		s-0.2-1.9-0.6-2.6s-1-1.3-1.7-1.7c-0.7-0.4-1.6-0.6-2.5-0.6c-0.9,0-1.8,0.2-2.5,0.6c-0.7,0.4-1.3,1-1.7,1.7s-0.6,1.6-0.6,2.6
		s0.2,1.9,0.6,2.7c0.4,0.8,1,1.4,1.7,1.8c0.7,0.4,1.6,0.6,2.5,0.6C97.1,12.5,97.9,12.3,98.6,11.9z"/>
	<path class="st0" d="M108,0.7v8.7c0,1,0.3,1.8,0.8,2.3c0.6,0.5,1.4,0.8,2.4,0.8c1,0,1.8-0.3,2.4-0.8c0.6-0.5,0.8-1.3,0.8-2.3V0.7
		h2.3v8.6c0,1.1-0.3,2-0.8,2.8c-0.5,0.8-1.2,1.3-2,1.7c-0.8,0.4-1.8,0.6-2.8,0.6s-1.9-0.2-2.8-0.6c-0.8-0.4-1.5-1-2-1.7
		c-0.5-0.8-0.7-1.7-0.7-2.8V0.7H108z"/>
	<path class="st0" d="M129.1,6.7c-0.3,0.6-0.9,1.1-1.6,1.5c-0.7,0.4-1.7,0.6-2.9,0.6h-2.6v5.5h-2.3V0.7h4.9c1.1,0,2,0.2,2.8,0.5
		s1.3,0.8,1.7,1.5c0.4,0.6,0.6,1.3,0.6,2.1C129.6,5.5,129.5,6.1,129.1,6.7z M126.6,6.4c0.4-0.4,0.7-0.9,0.7-1.6
		c0-1.5-0.9-2.2-2.6-2.2h-2.6V7h2.6C125.5,7,126.2,6.8,126.6,6.4z"/>
</g>
</svg>
